<mxfile host="Electron" agent="Mozilla/5.0 (Windows NT 10.0; Win64; x64) AppleWebKit/537.36 (KHTML, like Gecko) draw.io/28.0.6 Chrome/138.0.7204.100 Electron/37.2.3 Safari/537.36" version="28.0.6">
  <diagram name="Page-1" id="4Ll_V3ni4y8T_HMYX_7w">
    <mxGraphModel dx="2066" dy="1210" grid="1" gridSize="10" guides="1" tooltips="1" connect="1" arrows="1" fold="1" page="1" pageScale="1" pageWidth="1920" pageHeight="1200" math="0" shadow="0">
      <root>
        <mxCell id="0" />
        <mxCell id="1" parent="0" />
        <mxCell id="tBCp6fRdK7GAPiqH0egQ-1" value="" style="rounded=1;whiteSpace=wrap;html=1;dashed=1;dashPattern=12 12;fillColor=none;strokeColor=#82b366;strokeWidth=2;" parent="1" vertex="1">
          <mxGeometry x="270" y="250" width="830" height="340" as="geometry" />
        </mxCell>
        <mxCell id="tBCp6fRdK7GAPiqH0egQ-2" value="" style="rounded=1;whiteSpace=wrap;html=1;dashed=1;dashPattern=12 12;fillColor=none;strokeColor=#d79b00;strokeWidth=2;" parent="1" vertex="1">
          <mxGeometry x="730" y="250" width="830" height="590" as="geometry" />
        </mxCell>
        <mxCell id="dI3RgXpNc56_LAAg83kL-9" value="&lt;font style=&quot;font-size: 20px;&quot;&gt;DimCustomer&lt;/font&gt;" style="shape=table;startSize=30;container=1;collapsible=1;childLayout=tableLayout;fixedRows=1;rowLines=0;fontStyle=1;align=center;resizeLast=1;html=1;rounded=1;shadow=0;swimlaneLine=1;gradientColor=none;swimlaneFillColor=none;" parent="1" vertex="1">
          <mxGeometry x="420" y="460" width="180" height="60" as="geometry" />
        </mxCell>
        <mxCell id="dI3RgXpNc56_LAAg83kL-10" value="" style="shape=tableRow;horizontal=0;startSize=0;swimlaneHead=0;swimlaneBody=0;fillColor=none;collapsible=0;dropTarget=0;points=[[0,0.5],[1,0.5]];portConstraint=eastwest;top=0;left=0;right=0;bottom=1;shadow=1;swimlaneLine=0;" parent="dI3RgXpNc56_LAAg83kL-9" vertex="1">
          <mxGeometry y="30" width="180" height="30" as="geometry" />
        </mxCell>
        <mxCell id="dI3RgXpNc56_LAAg83kL-11" value="PK" style="shape=partialRectangle;connectable=0;fillColor=none;top=0;left=0;bottom=0;right=0;fontStyle=1;overflow=hidden;whiteSpace=wrap;html=1;shadow=1;swimlaneLine=0;" parent="dI3RgXpNc56_LAAg83kL-10" vertex="1">
          <mxGeometry width="30" height="30" as="geometry">
            <mxRectangle width="30" height="30" as="alternateBounds" />
          </mxGeometry>
        </mxCell>
        <mxCell id="dI3RgXpNc56_LAAg83kL-12" value="CustomerKey" style="shape=partialRectangle;connectable=0;fillColor=none;top=0;left=0;bottom=0;right=0;align=left;spacingLeft=6;fontStyle=5;overflow=hidden;whiteSpace=wrap;html=1;shadow=1;swimlaneLine=0;" parent="dI3RgXpNc56_LAAg83kL-10" vertex="1">
          <mxGeometry x="30" width="150" height="30" as="geometry">
            <mxRectangle width="150" height="30" as="alternateBounds" />
          </mxGeometry>
        </mxCell>
        <mxCell id="dI3RgXpNc56_LAAg83kL-22" value="&lt;font style=&quot;font-size: 20px;&quot;&gt;ProspectiveBuyer&lt;/font&gt;" style="shape=table;startSize=30;container=1;collapsible=1;childLayout=tableLayout;fixedRows=1;rowLines=0;fontStyle=1;align=center;resizeLast=1;html=1;rounded=1;shadow=0;swimlaneLine=1;" parent="1" vertex="1">
          <mxGeometry x="420" y="340" width="180" height="60" as="geometry" />
        </mxCell>
        <mxCell id="dI3RgXpNc56_LAAg83kL-23" value="" style="shape=tableRow;horizontal=0;startSize=0;swimlaneHead=0;swimlaneBody=0;fillColor=none;collapsible=0;dropTarget=0;points=[[0,0.5],[1,0.5]];portConstraint=eastwest;top=0;left=0;right=0;bottom=1;shadow=1;swimlaneLine=0;" parent="dI3RgXpNc56_LAAg83kL-22" vertex="1">
          <mxGeometry y="30" width="180" height="30" as="geometry" />
        </mxCell>
        <mxCell id="dI3RgXpNc56_LAAg83kL-24" value="PK" style="shape=partialRectangle;connectable=0;fillColor=none;top=0;left=0;bottom=0;right=0;fontStyle=1;overflow=hidden;whiteSpace=wrap;html=1;shadow=1;swimlaneLine=0;" parent="dI3RgXpNc56_LAAg83kL-23" vertex="1">
          <mxGeometry width="30" height="30" as="geometry">
            <mxRectangle width="30" height="30" as="alternateBounds" />
          </mxGeometry>
        </mxCell>
        <mxCell id="dI3RgXpNc56_LAAg83kL-25" value="ProspectiveBuyerKey" style="shape=partialRectangle;connectable=0;fillColor=none;top=0;left=0;bottom=0;right=0;align=left;spacingLeft=6;fontStyle=5;overflow=hidden;whiteSpace=wrap;html=1;shadow=1;swimlaneLine=0;" parent="dI3RgXpNc56_LAAg83kL-23" vertex="1">
          <mxGeometry x="30" width="150" height="30" as="geometry">
            <mxRectangle width="150" height="30" as="alternateBounds" />
          </mxGeometry>
        </mxCell>
        <mxCell id="dI3RgXpNc56_LAAg83kL-57" value="&lt;font style=&quot;font-size: 20px;&quot;&gt;FactInternetSales&lt;/font&gt;" style="shape=table;startSize=30;container=1;collapsible=1;childLayout=tableLayout;fixedRows=1;rowLines=0;fontStyle=1;align=center;resizeLast=1;html=1;labelBorderColor=none;rounded=1;shadow=0;swimlaneLine=1;" parent="1" vertex="1">
          <mxGeometry x="795" y="370" width="250" height="150" as="geometry" />
        </mxCell>
        <mxCell id="dI3RgXpNc56_LAAg83kL-58" value="" style="shape=tableRow;horizontal=0;startSize=0;swimlaneHead=0;swimlaneBody=0;fillColor=none;collapsible=0;dropTarget=0;points=[[0,0.5],[1,0.5]];portConstraint=eastwest;top=0;left=0;right=0;bottom=1;shadow=1;swimlaneLine=0;" parent="dI3RgXpNc56_LAAg83kL-57" vertex="1">
          <mxGeometry y="30" width="250" height="30" as="geometry" />
        </mxCell>
        <mxCell id="dI3RgXpNc56_LAAg83kL-59" value="PK" style="shape=partialRectangle;connectable=0;fillColor=none;top=0;left=0;bottom=0;right=0;fontStyle=1;overflow=hidden;whiteSpace=wrap;html=1;shadow=1;swimlaneLine=0;" parent="dI3RgXpNc56_LAAg83kL-58" vertex="1">
          <mxGeometry width="30" height="30" as="geometry">
            <mxRectangle width="30" height="30" as="alternateBounds" />
          </mxGeometry>
        </mxCell>
        <mxCell id="dI3RgXpNc56_LAAg83kL-60" value="SalesOrderNumber" style="shape=partialRectangle;connectable=0;fillColor=none;top=0;left=0;bottom=0;right=0;align=left;spacingLeft=6;fontStyle=5;overflow=hidden;whiteSpace=wrap;html=1;shadow=1;swimlaneLine=0;" parent="dI3RgXpNc56_LAAg83kL-58" vertex="1">
          <mxGeometry x="30" width="220" height="30" as="geometry">
            <mxRectangle width="220" height="30" as="alternateBounds" />
          </mxGeometry>
        </mxCell>
        <mxCell id="dI3RgXpNc56_LAAg83kL-61" value="" style="shape=tableRow;horizontal=0;startSize=0;swimlaneHead=0;swimlaneBody=0;fillColor=none;collapsible=0;dropTarget=0;points=[[0,0.5],[1,0.5]];portConstraint=eastwest;top=0;left=0;right=0;bottom=0;shadow=1;swimlaneLine=0;" parent="dI3RgXpNc56_LAAg83kL-57" vertex="1">
          <mxGeometry y="60" width="250" height="30" as="geometry" />
        </mxCell>
        <mxCell id="dI3RgXpNc56_LAAg83kL-62" value="&lt;b&gt;PK&lt;/b&gt;" style="shape=partialRectangle;connectable=0;fillColor=none;top=0;left=0;bottom=0;right=0;editable=1;overflow=hidden;whiteSpace=wrap;html=1;shadow=1;swimlaneLine=0;" parent="dI3RgXpNc56_LAAg83kL-61" vertex="1">
          <mxGeometry width="30" height="30" as="geometry">
            <mxRectangle width="30" height="30" as="alternateBounds" />
          </mxGeometry>
        </mxCell>
        <mxCell id="dI3RgXpNc56_LAAg83kL-63" value="&lt;b&gt;&lt;u&gt;SalesOrderLineNumber&lt;/u&gt;&lt;/b&gt;" style="shape=partialRectangle;connectable=0;fillColor=none;top=0;left=0;bottom=0;right=0;align=left;spacingLeft=6;overflow=hidden;whiteSpace=wrap;html=1;strokeColor=default;shadow=1;swimlaneLine=0;" parent="dI3RgXpNc56_LAAg83kL-61" vertex="1">
          <mxGeometry x="30" width="220" height="30" as="geometry">
            <mxRectangle width="220" height="30" as="alternateBounds" />
          </mxGeometry>
        </mxCell>
        <mxCell id="dI3RgXpNc56_LAAg83kL-84" style="shape=tableRow;horizontal=0;startSize=0;swimlaneHead=0;swimlaneBody=0;fillColor=none;collapsible=0;dropTarget=0;points=[[0,0.5],[1,0.5]];portConstraint=eastwest;top=1;left=0;right=0;bottom=0;swimlaneLine=0;rounded=0;shadow=1;" parent="dI3RgXpNc56_LAAg83kL-57" vertex="1">
          <mxGeometry y="90" width="250" height="30" as="geometry" />
        </mxCell>
        <mxCell id="dI3RgXpNc56_LAAg83kL-85" value="FK" style="shape=partialRectangle;connectable=0;fillColor=none;top=0;left=0;bottom=0;right=0;editable=1;overflow=hidden;whiteSpace=wrap;html=1;shadow=1;swimlaneLine=0;" parent="dI3RgXpNc56_LAAg83kL-84" vertex="1">
          <mxGeometry width="30" height="30" as="geometry">
            <mxRectangle width="30" height="30" as="alternateBounds" />
          </mxGeometry>
        </mxCell>
        <mxCell id="dI3RgXpNc56_LAAg83kL-86" value="ProductKey" style="shape=partialRectangle;connectable=0;fillColor=none;top=0;left=0;bottom=0;right=0;align=left;spacingLeft=6;overflow=hidden;whiteSpace=wrap;html=1;strokeColor=default;labelBorderColor=none;shadow=1;swimlaneLine=0;" parent="dI3RgXpNc56_LAAg83kL-84" vertex="1">
          <mxGeometry x="30" width="220" height="30" as="geometry">
            <mxRectangle width="220" height="30" as="alternateBounds" />
          </mxGeometry>
        </mxCell>
        <mxCell id="dI3RgXpNc56_LAAg83kL-98" style="shape=tableRow;horizontal=0;startSize=0;swimlaneHead=0;swimlaneBody=0;fillColor=none;collapsible=0;dropTarget=0;points=[[0,0.5],[1,0.5]];portConstraint=eastwest;top=1;left=0;right=0;bottom=0;swimlaneLine=0;rounded=0;shadow=1;" parent="dI3RgXpNc56_LAAg83kL-57" vertex="1">
          <mxGeometry y="120" width="250" height="30" as="geometry" />
        </mxCell>
        <mxCell id="dI3RgXpNc56_LAAg83kL-99" value="FK" style="shape=partialRectangle;connectable=0;fillColor=none;top=0;left=0;bottom=0;right=0;editable=1;overflow=hidden;whiteSpace=wrap;html=1;shadow=1;swimlaneLine=0;" parent="dI3RgXpNc56_LAAg83kL-98" vertex="1">
          <mxGeometry width="30" height="30" as="geometry">
            <mxRectangle width="30" height="30" as="alternateBounds" />
          </mxGeometry>
        </mxCell>
        <mxCell id="dI3RgXpNc56_LAAg83kL-100" value="CustomerKey" style="shape=partialRectangle;connectable=0;fillColor=none;top=0;left=0;bottom=0;right=0;align=left;spacingLeft=6;overflow=hidden;whiteSpace=wrap;html=1;strokeColor=default;labelBorderColor=none;shadow=1;swimlaneLine=0;" parent="dI3RgXpNc56_LAAg83kL-98" vertex="1">
          <mxGeometry x="30" width="220" height="30" as="geometry">
            <mxRectangle width="220" height="30" as="alternateBounds" />
          </mxGeometry>
        </mxCell>
        <mxCell id="dI3RgXpNc56_LAAg83kL-104" value="&lt;font style=&quot;font-size: 20px;&quot;&gt;FactResellerSales&lt;/font&gt;" style="shape=table;startSize=30;container=1;collapsible=1;childLayout=tableLayout;fixedRows=1;rowLines=0;fontStyle=1;align=center;resizeLast=1;html=1;labelBorderColor=none;rounded=1;shadow=0;swimlaneLine=1;" parent="1" vertex="1">
          <mxGeometry x="795" y="640" width="250" height="120" as="geometry" />
        </mxCell>
        <mxCell id="dI3RgXpNc56_LAAg83kL-105" value="" style="shape=tableRow;horizontal=0;startSize=0;swimlaneHead=0;swimlaneBody=0;fillColor=none;collapsible=0;dropTarget=0;points=[[0,0.5],[1,0.5]];portConstraint=eastwest;top=0;left=0;right=0;bottom=1;shadow=1;swimlaneLine=0;" parent="dI3RgXpNc56_LAAg83kL-104" vertex="1">
          <mxGeometry y="30" width="250" height="30" as="geometry" />
        </mxCell>
        <mxCell id="dI3RgXpNc56_LAAg83kL-106" value="PK" style="shape=partialRectangle;connectable=0;fillColor=none;top=0;left=0;bottom=0;right=0;fontStyle=1;overflow=hidden;whiteSpace=wrap;html=1;shadow=1;swimlaneLine=0;" parent="dI3RgXpNc56_LAAg83kL-105" vertex="1">
          <mxGeometry width="30" height="30" as="geometry">
            <mxRectangle width="30" height="30" as="alternateBounds" />
          </mxGeometry>
        </mxCell>
        <mxCell id="dI3RgXpNc56_LAAg83kL-107" value="SalesOrderNumber" style="shape=partialRectangle;connectable=0;fillColor=none;top=0;left=0;bottom=0;right=0;align=left;spacingLeft=6;fontStyle=5;overflow=hidden;whiteSpace=wrap;html=1;shadow=1;swimlaneLine=0;" parent="dI3RgXpNc56_LAAg83kL-105" vertex="1">
          <mxGeometry x="30" width="220" height="30" as="geometry">
            <mxRectangle width="220" height="30" as="alternateBounds" />
          </mxGeometry>
        </mxCell>
        <mxCell id="dI3RgXpNc56_LAAg83kL-108" value="" style="shape=tableRow;horizontal=0;startSize=0;swimlaneHead=0;swimlaneBody=0;fillColor=none;collapsible=0;dropTarget=0;points=[[0,0.5],[1,0.5]];portConstraint=eastwest;top=0;left=0;right=0;bottom=0;shadow=1;swimlaneLine=0;" parent="dI3RgXpNc56_LAAg83kL-104" vertex="1">
          <mxGeometry y="60" width="250" height="30" as="geometry" />
        </mxCell>
        <mxCell id="dI3RgXpNc56_LAAg83kL-109" value="&lt;b&gt;PK&lt;/b&gt;" style="shape=partialRectangle;connectable=0;fillColor=none;top=0;left=0;bottom=0;right=0;editable=1;overflow=hidden;whiteSpace=wrap;html=1;shadow=1;swimlaneLine=0;" parent="dI3RgXpNc56_LAAg83kL-108" vertex="1">
          <mxGeometry width="30" height="30" as="geometry">
            <mxRectangle width="30" height="30" as="alternateBounds" />
          </mxGeometry>
        </mxCell>
        <mxCell id="dI3RgXpNc56_LAAg83kL-110" value="&lt;b&gt;&lt;u&gt;SalesOrderLineNumber&lt;/u&gt;&lt;/b&gt;" style="shape=partialRectangle;connectable=0;fillColor=none;top=0;left=0;bottom=0;right=0;align=left;spacingLeft=6;overflow=hidden;whiteSpace=wrap;html=1;strokeColor=default;shadow=1;swimlaneLine=0;" parent="dI3RgXpNc56_LAAg83kL-108" vertex="1">
          <mxGeometry x="30" width="220" height="30" as="geometry">
            <mxRectangle width="220" height="30" as="alternateBounds" />
          </mxGeometry>
        </mxCell>
        <mxCell id="dI3RgXpNc56_LAAg83kL-111" style="shape=tableRow;horizontal=0;startSize=0;swimlaneHead=0;swimlaneBody=0;fillColor=none;collapsible=0;dropTarget=0;points=[[0,0.5],[1,0.5]];portConstraint=eastwest;top=1;left=0;right=0;bottom=0;swimlaneLine=0;rounded=0;shadow=1;" parent="dI3RgXpNc56_LAAg83kL-104" vertex="1">
          <mxGeometry y="90" width="250" height="30" as="geometry" />
        </mxCell>
        <mxCell id="dI3RgXpNc56_LAAg83kL-112" value="FK" style="shape=partialRectangle;connectable=0;fillColor=none;top=0;left=0;bottom=0;right=0;editable=1;overflow=hidden;whiteSpace=wrap;html=1;shadow=1;swimlaneLine=0;" parent="dI3RgXpNc56_LAAg83kL-111" vertex="1">
          <mxGeometry width="30" height="30" as="geometry">
            <mxRectangle width="30" height="30" as="alternateBounds" />
          </mxGeometry>
        </mxCell>
        <mxCell id="dI3RgXpNc56_LAAg83kL-113" value="ProductKey" style="shape=partialRectangle;connectable=0;fillColor=none;top=0;left=0;bottom=0;right=0;align=left;spacingLeft=6;overflow=hidden;whiteSpace=wrap;html=1;strokeColor=default;labelBorderColor=none;shadow=1;swimlaneLine=0;" parent="dI3RgXpNc56_LAAg83kL-111" vertex="1">
          <mxGeometry x="30" width="220" height="30" as="geometry">
            <mxRectangle width="220" height="30" as="alternateBounds" />
          </mxGeometry>
        </mxCell>
        <mxCell id="dI3RgXpNc56_LAAg83kL-117" value="&lt;font style=&quot;font-size: 20px;&quot;&gt;DimProduct&lt;/font&gt;" style="shape=table;startSize=30;container=1;collapsible=1;childLayout=tableLayout;fixedRows=1;rowLines=0;fontStyle=1;align=center;resizeLast=1;html=1;rounded=1;shadow=0;swimlaneLine=1;" parent="1" vertex="1">
          <mxGeometry x="1245" y="370" width="180" height="90" as="geometry" />
        </mxCell>
        <mxCell id="dI3RgXpNc56_LAAg83kL-118" value="" style="shape=tableRow;horizontal=0;startSize=0;swimlaneHead=0;swimlaneBody=0;fillColor=none;collapsible=0;dropTarget=0;points=[[0,0.5],[1,0.5]];portConstraint=eastwest;top=0;left=0;right=0;bottom=1;shadow=1;swimlaneLine=0;" parent="dI3RgXpNc56_LAAg83kL-117" vertex="1">
          <mxGeometry y="30" width="180" height="30" as="geometry" />
        </mxCell>
        <mxCell id="dI3RgXpNc56_LAAg83kL-119" value="PK" style="shape=partialRectangle;connectable=0;fillColor=none;top=0;left=0;bottom=0;right=0;fontStyle=1;overflow=hidden;whiteSpace=wrap;html=1;shadow=1;swimlaneLine=0;" parent="dI3RgXpNc56_LAAg83kL-118" vertex="1">
          <mxGeometry width="30" height="30" as="geometry">
            <mxRectangle width="30" height="30" as="alternateBounds" />
          </mxGeometry>
        </mxCell>
        <mxCell id="dI3RgXpNc56_LAAg83kL-120" value="ProductKey" style="shape=partialRectangle;connectable=0;fillColor=none;top=0;left=0;bottom=0;right=0;align=left;spacingLeft=6;fontStyle=5;overflow=hidden;whiteSpace=wrap;html=1;shadow=1;swimlaneLine=0;" parent="dI3RgXpNc56_LAAg83kL-118" vertex="1">
          <mxGeometry x="30" width="150" height="30" as="geometry">
            <mxRectangle width="150" height="30" as="alternateBounds" />
          </mxGeometry>
        </mxCell>
        <mxCell id="dI3RgXpNc56_LAAg83kL-121" value="" style="shape=tableRow;horizontal=0;startSize=0;swimlaneHead=0;swimlaneBody=0;fillColor=none;collapsible=0;dropTarget=0;points=[[0,0.5],[1,0.5]];portConstraint=eastwest;top=0;left=0;right=0;bottom=0;shadow=1;swimlaneLine=0;" parent="dI3RgXpNc56_LAAg83kL-117" vertex="1">
          <mxGeometry y="60" width="180" height="30" as="geometry" />
        </mxCell>
        <mxCell id="dI3RgXpNc56_LAAg83kL-122" value="FK" style="shape=partialRectangle;connectable=0;fillColor=none;top=0;left=0;bottom=0;right=0;editable=1;overflow=hidden;whiteSpace=wrap;html=1;shadow=1;swimlaneLine=0;" parent="dI3RgXpNc56_LAAg83kL-121" vertex="1">
          <mxGeometry width="30" height="30" as="geometry">
            <mxRectangle width="30" height="30" as="alternateBounds" />
          </mxGeometry>
        </mxCell>
        <mxCell id="dI3RgXpNc56_LAAg83kL-123" value="ProductSubcategoryKey" style="shape=partialRectangle;connectable=0;fillColor=none;top=0;left=0;bottom=0;right=0;align=left;spacingLeft=6;overflow=hidden;whiteSpace=wrap;html=1;shadow=1;swimlaneLine=0;" parent="dI3RgXpNc56_LAAg83kL-121" vertex="1">
          <mxGeometry x="30" width="150" height="30" as="geometry">
            <mxRectangle width="150" height="30" as="alternateBounds" />
          </mxGeometry>
        </mxCell>
        <mxCell id="dI3RgXpNc56_LAAg83kL-124" value="&lt;font style=&quot;font-size: 20px; background-color: light-dark(#ffffff, var(--ge-dark-color, #121212));&quot;&gt;DimProductCategory&lt;/font&gt;" style="shape=table;startSize=30;container=1;collapsible=1;childLayout=tableLayout;fixedRows=1;rowLines=0;fontStyle=1;align=center;resizeLast=1;html=1;rounded=1;shadow=0;swimlaneLine=1;" parent="1" vertex="1">
          <mxGeometry x="1215" y="640" width="240" height="60" as="geometry" />
        </mxCell>
        <mxCell id="dI3RgXpNc56_LAAg83kL-125" value="" style="shape=tableRow;horizontal=0;startSize=0;swimlaneHead=0;swimlaneBody=0;fillColor=none;collapsible=0;dropTarget=0;points=[[0,0.5],[1,0.5]];portConstraint=eastwest;top=0;left=0;right=0;bottom=1;shadow=1;swimlaneLine=0;" parent="dI3RgXpNc56_LAAg83kL-124" vertex="1">
          <mxGeometry y="30" width="240" height="30" as="geometry" />
        </mxCell>
        <mxCell id="dI3RgXpNc56_LAAg83kL-126" value="PK" style="shape=partialRectangle;connectable=0;fillColor=none;top=0;left=0;bottom=0;right=0;fontStyle=1;overflow=hidden;whiteSpace=wrap;html=1;shadow=1;swimlaneLine=0;" parent="dI3RgXpNc56_LAAg83kL-125" vertex="1">
          <mxGeometry width="30" height="30" as="geometry">
            <mxRectangle width="30" height="30" as="alternateBounds" />
          </mxGeometry>
        </mxCell>
        <mxCell id="dI3RgXpNc56_LAAg83kL-127" value="ProductCategoryKey" style="shape=partialRectangle;connectable=0;fillColor=none;top=0;left=0;bottom=0;right=0;align=left;spacingLeft=6;fontStyle=5;overflow=hidden;whiteSpace=wrap;html=1;shadow=1;swimlaneLine=0;" parent="dI3RgXpNc56_LAAg83kL-125" vertex="1">
          <mxGeometry x="30" width="210" height="30" as="geometry">
            <mxRectangle width="210" height="30" as="alternateBounds" />
          </mxGeometry>
        </mxCell>
        <mxCell id="dI3RgXpNc56_LAAg83kL-131" value="&lt;font style=&quot;font-size: 20px;&quot;&gt;DimProductSubcategory&lt;/font&gt;" style="shape=table;startSize=30;container=1;collapsible=1;childLayout=tableLayout;fixedRows=1;rowLines=0;fontStyle=1;align=center;resizeLast=1;html=1;rounded=1;shadow=0;swimlaneLine=1;" parent="1" vertex="1">
          <mxGeometry x="1220" y="520" width="240" height="90" as="geometry" />
        </mxCell>
        <mxCell id="dI3RgXpNc56_LAAg83kL-132" value="" style="shape=tableRow;horizontal=0;startSize=0;swimlaneHead=0;swimlaneBody=0;fillColor=none;collapsible=0;dropTarget=0;points=[[0,0.5],[1,0.5]];portConstraint=eastwest;top=0;left=0;right=0;bottom=1;shadow=1;swimlaneLine=0;" parent="dI3RgXpNc56_LAAg83kL-131" vertex="1">
          <mxGeometry y="30" width="240" height="30" as="geometry" />
        </mxCell>
        <mxCell id="dI3RgXpNc56_LAAg83kL-133" value="PK" style="shape=partialRectangle;connectable=0;fillColor=none;top=0;left=0;bottom=0;right=0;fontStyle=1;overflow=hidden;whiteSpace=wrap;html=1;shadow=1;swimlaneLine=0;" parent="dI3RgXpNc56_LAAg83kL-132" vertex="1">
          <mxGeometry width="30" height="30" as="geometry">
            <mxRectangle width="30" height="30" as="alternateBounds" />
          </mxGeometry>
        </mxCell>
        <mxCell id="dI3RgXpNc56_LAAg83kL-134" value="ProductSubcategoryKey" style="shape=partialRectangle;connectable=0;fillColor=none;top=0;left=0;bottom=0;right=0;align=left;spacingLeft=6;fontStyle=5;overflow=hidden;whiteSpace=wrap;html=1;shadow=1;swimlaneLine=0;" parent="dI3RgXpNc56_LAAg83kL-132" vertex="1">
          <mxGeometry x="30" width="210" height="30" as="geometry">
            <mxRectangle width="210" height="30" as="alternateBounds" />
          </mxGeometry>
        </mxCell>
        <mxCell id="dI3RgXpNc56_LAAg83kL-135" style="shape=tableRow;horizontal=0;startSize=0;swimlaneHead=0;swimlaneBody=0;fillColor=none;collapsible=0;dropTarget=0;points=[[0,0.5],[1,0.5]];portConstraint=eastwest;top=0;left=0;right=0;bottom=1;shadow=1;swimlaneLine=0;" parent="dI3RgXpNc56_LAAg83kL-131" vertex="1">
          <mxGeometry y="60" width="240" height="30" as="geometry" />
        </mxCell>
        <mxCell id="dI3RgXpNc56_LAAg83kL-136" value="FK" style="shape=partialRectangle;connectable=0;fillColor=none;top=0;left=0;bottom=0;right=0;fontStyle=1;overflow=hidden;whiteSpace=wrap;html=1;shadow=1;swimlaneLine=0;" parent="dI3RgXpNc56_LAAg83kL-135" vertex="1">
          <mxGeometry width="30" height="30" as="geometry">
            <mxRectangle width="30" height="30" as="alternateBounds" />
          </mxGeometry>
        </mxCell>
        <mxCell id="dI3RgXpNc56_LAAg83kL-137" value="ProductCategoryKey" style="shape=partialRectangle;connectable=0;fillColor=none;top=0;left=0;bottom=0;right=0;align=left;spacingLeft=6;fontStyle=0;overflow=hidden;whiteSpace=wrap;html=1;shadow=1;swimlaneLine=0;" parent="dI3RgXpNc56_LAAg83kL-135" vertex="1">
          <mxGeometry x="30" width="210" height="30" as="geometry">
            <mxRectangle width="210" height="30" as="alternateBounds" />
          </mxGeometry>
        </mxCell>
        <mxCell id="dI3RgXpNc56_LAAg83kL-139" style="edgeStyle=orthogonalEdgeStyle;rounded=0;orthogonalLoop=1;jettySize=auto;html=1;shadow=1;swimlaneLine=0;" parent="1" source="dI3RgXpNc56_LAAg83kL-10" target="dI3RgXpNc56_LAAg83kL-98" edge="1">
          <mxGeometry relative="1" as="geometry" />
        </mxCell>
        <mxCell id="dI3RgXpNc56_LAAg83kL-140" style="edgeStyle=orthogonalEdgeStyle;rounded=0;orthogonalLoop=1;jettySize=auto;html=1;entryX=1;entryY=0.5;entryDx=0;entryDy=0;shadow=1;swimlaneLine=0;" parent="1" source="dI3RgXpNc56_LAAg83kL-118" target="dI3RgXpNc56_LAAg83kL-84" edge="1">
          <mxGeometry relative="1" as="geometry" />
        </mxCell>
        <mxCell id="dI3RgXpNc56_LAAg83kL-141" style="edgeStyle=orthogonalEdgeStyle;rounded=0;orthogonalLoop=1;jettySize=auto;html=1;entryX=1;entryY=0.5;entryDx=0;entryDy=0;exitX=1;exitY=0.5;exitDx=0;exitDy=0;shadow=1;swimlaneLine=0;" parent="1" source="dI3RgXpNc56_LAAg83kL-132" target="dI3RgXpNc56_LAAg83kL-121" edge="1">
          <mxGeometry relative="1" as="geometry" />
        </mxCell>
        <mxCell id="dI3RgXpNc56_LAAg83kL-143" style="edgeStyle=orthogonalEdgeStyle;rounded=0;orthogonalLoop=1;jettySize=auto;html=1;entryX=1;entryY=0.5;entryDx=0;entryDy=0;shadow=1;swimlaneLine=0;" parent="1" source="dI3RgXpNc56_LAAg83kL-118" target="dI3RgXpNc56_LAAg83kL-111" edge="1">
          <mxGeometry relative="1" as="geometry" />
        </mxCell>
        <mxCell id="dI3RgXpNc56_LAAg83kL-145" style="edgeStyle=orthogonalEdgeStyle;rounded=0;orthogonalLoop=1;jettySize=auto;html=1;entryX=1;entryY=0.5;entryDx=0;entryDy=0;exitX=1;exitY=0.5;exitDx=0;exitDy=0;shadow=1;swimlaneLine=0;" parent="1" source="dI3RgXpNc56_LAAg83kL-125" target="dI3RgXpNc56_LAAg83kL-135" edge="1">
          <mxGeometry relative="1" as="geometry">
            <mxPoint x="1500" y="600" as="targetPoint" />
          </mxGeometry>
        </mxCell>
        <mxCell id="tBCp6fRdK7GAPiqH0egQ-3" value="&lt;font style=&quot;font-size: 26px;&quot;&gt;CUSTOMERS&lt;/font&gt;" style="rounded=0;whiteSpace=wrap;html=1;fillColor=#d5e8d4;strokeColor=#82b366;" parent="1" vertex="1">
          <mxGeometry x="445" y="230" width="170" height="30" as="geometry" />
        </mxCell>
        <mxCell id="tBCp6fRdK7GAPiqH0egQ-4" value="&lt;font style=&quot;font-size: 26px;&quot;&gt;PRODUCTS&lt;/font&gt;" style="rounded=0;whiteSpace=wrap;html=1;fillColor=#ffe6cc;strokeColor=#d79b00;" parent="1" vertex="1">
          <mxGeometry x="1250" y="230" width="170" height="30" as="geometry" />
        </mxCell>
      </root>
    </mxGraphModel>
  </diagram>
</mxfile>
